<svg id="Layer_1" data-name="Layer 1" xmlns="http://www.w3.org/2000/svg" xmlns:xlink="http://www.w3.org/1999/xlink" viewBox="0 0 1146.56 185.79"><defs><style>.cls-1{fill:none;}.cls-2{fill:#005595;}.cls-3{clip-path:url(#clip-path);}.cls-4{fill:#3cb4e5;}.cls-5{fill:#236092;}.cls-6{fill:#fff;}.cls-7{isolation:isolate;}.cls-8{clip-path:url(#clip-path-2);}.cls-9{clip-path:url(#clip-path-3);}</style><clipPath id="clip-path" transform="translate(-71.35 -224.18)"><rect class="cls-1" width="1296" height="720"/></clipPath><clipPath id="clip-path-2" transform="translate(-71.35 -224.18)"><rect class="cls-1" x="190.54" y="244.11" width="44.47" height="80.73"/></clipPath><clipPath id="clip-path-3" transform="translate(-71.35 -224.18)"><rect class="cls-1" x="145.93" y="224.61" width="121.78" height="139.82"/></clipPath></defs><title>logo-v2</title><path class="cls-2" d="M303.75,287.78c0,5.37-.79,9.66-9.48,9.66-3.87,0-5.51-1.3-5.51-3.26a2.57,2.57,0,0,1,2.66-2.48c2.67,0,2.48,3.5,4.72,3.5,1.92,0,2.48-1.3,2.48-5.46V271.38c0-3.64-.7-4.34-4-4.34v-1.17h13.08V267c-3.27,0-4,.7-4,4.34Z" transform="translate(-71.35 -224.18)"/><path class="cls-2" d="M314.64,295.81c3.27,0,4-.7,4-4.34V271.38c0-3.64-.7-4.34-4-4.34v-1.17h22l.28,6.77h-1.36c-.18-2.52-.79-4.62-6-4.62h-3c-2.29,0-2.8.75-2.8,3.36v8.27h6.12c3,0,3.5-.65,3.5-3.74h1.26v9.67h-1.26c0-2.8-.47-3.78-3.5-3.78h-6.12v9.67c0,3.13.37,3.36,2.8,3.36h4.3c4,0,5.32-1.68,5.46-4.62h1.36l-.28,6.77H314.64Z" transform="translate(-71.35 -224.18)"/><path class="cls-2" d="M366.53,273.48c-.37-2.52-1.58-5.83-6.54-5.83-3.78,0-5.88,1.91-5.88,4.34,0,4.58,7.94,6.72,11.44,9.43,2.29,1.78,3.93,3.83,3.93,7,0,6.59-5.1,9-12.19,9a31.45,31.45,0,0,1-8.32-1.26l-.28-7.7h1.36c.56,2.38,1.63,6.72,7.75,6.72,4.06,0,6.35-2.19,6.35-5,0-4.58-5.46-6.26-9.76-9-2.8-1.82-5.09-4.06-5.09-7.8,0-5,3.87-7.94,10.69-7.94a45.64,45.64,0,0,1,7.62.84l.28,7.24Z" transform="translate(-71.35 -224.18)"/><path class="cls-2" d="M404.23,287c0,5.28-1.64,10.46-11.26,10.46-8.12,0-11.21-3.64-11.21-10.46v-15.6c0-3.64-.7-4.34-4-4.34v-1.17h13.08V267c-3.27,0-4,.7-4,4.34V287c0,4.67.84,8.32,6.68,8.32,5.56,0,7.24-2.48,7.24-8.32v-15.6c0-3.64-.7-4.34-4-4.34v-1.17H408.2V267c-3.27,0-4,.7-4,4.34Z" transform="translate(-71.35 -224.18)"/><path class="cls-2" d="M434.82,273.48c-.37-2.52-1.58-5.83-6.53-5.83-3.79,0-5.89,1.91-5.89,4.34,0,4.58,7.94,6.72,11.44,9.43,2.29,1.78,3.93,3.83,3.93,7,0,6.59-5.09,9-12.19,9a31.45,31.45,0,0,1-8.32-1.26l-.28-7.7h1.36c.56,2.38,1.63,6.72,7.75,6.72,4.06,0,6.35-2.19,6.35-5,0-4.58-5.46-6.26-9.76-9-2.8-1.82-5.09-4.06-5.09-7.8,0-5,3.88-7.94,10.7-7.94a45.63,45.63,0,0,1,7.61.84l.28,7.24Z" transform="translate(-71.35 -224.18)"/><path class="cls-2" d="M467.52,295.81c3.32,0,4-.7,4-4.34V271.38c0-3.64-.65-4.34-4-4.34v-1.17H480.6c5.19,0,10.88,1.36,10.88,7.47,0,4.58-3.41,6.31-5.69,7.06v.09c3.27.65,7.19,2.29,7.19,8.22,0,7.85-7.94,8.27-12.38,8.27H467.52Zm9.11-16.35h2.9c4.48,0,6.63-1.59,6.63-5.79,0-4-1.87-5.65-5.56-5.65-3.31,0-4,.19-4,3.36Zm0,12c0,2.85.19,3.36,4,3.36,4.95,0,7-2.34,7-7.1,0-5.51-4.29-6.12-8.12-6.12h-2.9Z" transform="translate(-71.35 -224.18)"/><path class="cls-2" d="M500,295.81c3.22,0,4.39-1,5.84-4.9l9.38-25H519l9.53,25.64c1.31,3.46,2.38,4.3,5.65,4.3V297H520.91v-1.17c1.82,0,3.51-.19,3.51-1.63a4.65,4.65,0,0,0-.38-1.73l-1.87-5.05H510.08l-1.78,4.77a4.73,4.73,0,0,0-.42,1.77c0,1.45,1,1.87,3.5,1.87V297H500Zm10.88-10.56h10.51l-5.19-14.1Z" transform="translate(-71.35 -224.18)"/><path class="cls-2" d="M540.3,295.81c3.27,0,4-.7,4-4.34V271.38c0-3.64-.7-4.34-4-4.34v-1.17h13.22c5.93,0,10.74,2.1,10.74,8.55,0,8.31-7.38,8.78-13.13,8.78h-1.72v8.27c0,3.64.7,4.34,4,4.34V297H540.3Zm9.11-14.76H551c4,0,7.89-.28,7.89-6.63,0-5.51-2.66-6.4-6.67-6.4-2.48,0-2.85.56-2.85,3.36Z" transform="translate(-71.35 -224.18)"/><path class="cls-2" d="M577.2,295.81c3.27,0,4-.7,4-4.34V268h-1.82c-4.91,0-5.89,1.68-6.4,5.09h-1.36l.29-7.24h23.77l.23,7.24h-1.35c-.47-3.46-1.54-5.09-6.45-5.09h-1.77v23.45c0,3.64.7,4.34,4,4.34V297H577.2Z" transform="translate(-71.35 -224.18)"/><path class="cls-2" d="M602.66,295.81c3.31,0,4-.7,4-4.34V271.38c0-3.64-.66-4.34-4-4.34v-1.17h13.08V267c-3.27,0-4,.7-4,4.34v20.09c0,3.64.7,4.34,4,4.34V297H602.66Z" transform="translate(-71.35 -224.18)"/><path class="cls-2" d="M643.2,273.48c-.37-2.52-1.59-5.83-6.54-5.83-3.78,0-5.88,1.91-5.88,4.34,0,4.58,7.94,6.72,11.44,9.43,2.29,1.78,3.92,3.83,3.92,7,0,6.59-5.09,9-12.19,9a31.36,31.36,0,0,1-8.31-1.26l-.28-7.7h1.35c.56,2.38,1.64,6.72,7.76,6.72,4.06,0,6.35-2.19,6.35-5,0-4.58-5.47-6.26-9.76-9-2.81-1.82-5.09-4.06-5.09-7.8,0-5,3.87-7.94,10.69-7.94a45.49,45.49,0,0,1,7.61.84l.28,7.24Z" transform="translate(-71.35 -224.18)"/><path class="cls-2" d="M660.11,295.81c3.27,0,4-.7,4-4.34V268h-1.82c-4.9,0-5.89,1.68-6.4,5.09h-1.35l.28-7.24h23.77l.23,7.24h-1.35C677,269.65,675.9,268,671,268h-1.77v23.45c0,3.64.7,4.34,4,4.34V297H660.11Z" transform="translate(-71.35 -224.18)"/><path class="cls-2" d="M731.9,287c0,5.28-1.63,10.46-11.25,10.46-8.13,0-11.21-3.64-11.21-10.46v-15.6c0-3.64-.7-4.34-4-4.34v-1.17h13.07V267c-3.26,0-4,.7-4,4.34V287c0,4.67.84,8.32,6.67,8.32,5.56,0,7.24-2.48,7.24-8.32v-15.6c0-3.64-.7-4.34-4-4.34v-1.17h11.35V267c-3.27,0-4,.7-4,4.34Z" transform="translate(-71.35 -224.18)"/><path class="cls-2" d="M744.61,294.13a3.32,3.32,0,1,1,3.32,3.31A3.33,3.33,0,0,1,744.61,294.13Z" transform="translate(-71.35 -224.18)"/><path class="cls-2" d="M780.67,273.48c-.38-2.52-1.59-5.83-6.54-5.83-3.78,0-5.88,1.91-5.88,4.34,0,4.58,7.94,6.72,11.44,9.43,2.29,1.78,3.92,3.83,3.92,7,0,6.59-5.09,9-12.19,9a31.36,31.36,0,0,1-8.31-1.26l-.28-7.7h1.35c.56,2.38,1.64,6.72,7.75,6.72,4.07,0,6.36-2.19,6.36-5,0-4.58-5.47-6.26-9.76-9-2.81-1.82-5.1-4.06-5.1-7.8,0-5,3.88-7.94,10.7-7.94a45.49,45.49,0,0,1,7.61.84l.28,7.24Z" transform="translate(-71.35 -224.18)"/><path class="cls-2" d="M794.73,294.13a3.32,3.32,0,1,1,3.32,3.31A3.33,3.33,0,0,1,794.73,294.13Z" transform="translate(-71.35 -224.18)"/><path class="cls-2" d="M809.49,295.81c3.22,0,4.39-1,5.84-4.9l9.39-25h3.83l9.53,25.64c1.3,3.46,2.38,4.3,5.65,4.3V297H830.42v-1.17c1.82,0,3.5-.19,3.5-1.63a4.46,4.46,0,0,0-.38-1.73l-1.86-5.05h-12.1l-1.78,4.77a4.73,4.73,0,0,0-.42,1.77c0,1.45,1,1.87,3.51,1.87V297h-11.4Zm10.88-10.56h10.51l-5.18-14.1Z" transform="translate(-71.35 -224.18)"/><path class="cls-2" d="M851.86,294.13a3.32,3.32,0,1,1,3.31,3.31A3.33,3.33,0,0,1,851.86,294.13Z" transform="translate(-71.35 -224.18)"/><path class="cls-2" d="M913.05,295.67a20.24,20.24,0,0,1-9,1.77c-10.14,0-13.78-6.11-13.78-16.62,0-8.5,2.62-15.42,13-15.42a29.55,29.55,0,0,1,9.34,1.4l.28,7.8H911.6c-.19-2.38-2.76-7-7.8-7-6.87,0-8,7.33-8,13.17,0,7.38,2.57,14,9.06,14a13.28,13.28,0,0,0,8.18-2.38Z" transform="translate(-71.35 -224.18)"/><path class="cls-2" d="M923.18,281.42c0-9.94,3-16,12.75-16s12.76,6.08,12.76,16-3,16-12.76,16S923.18,291.37,923.18,281.42Zm12.75,13.78c6.22,0,7.24-6.44,7.24-13.78s-1-13.77-7.24-13.77-7.23,6.49-7.23,13.77S929.68,295.2,935.93,295.2Z" transform="translate(-71.35 -224.18)"/><path class="cls-2" d="M957.66,295.81c3.27,0,4-.7,4-4.34V271.38c0-3.64-.7-4.34-4-4.34v-1.17h9.15L981.43,291h.09V271.38c0-3.64-.7-4.34-4-4.34v-1.17h10.89V267c-3.37,0-4,.7-4,4.34V297H980l-15.37-26.39h-.09v20.88c0,3.64.65,4.34,4,4.34V297H957.66Z" transform="translate(-71.35 -224.18)"/><path class="cls-2" d="M994.88,295.81c3.27,0,4-.7,4-4.34V271.38c0-3.64-.7-4.34-4-4.34v-1.17h21.54l.28,6.77h-1.36c-.18-2.52-.75-4.62-5.56-4.62h-3c-2.29,0-2.76.75-2.76,3.36v8.27h6.12c3,0,3.5-.65,3.5-3.74h1.27v9.67h-1.27c0-2.8-.46-3.78-3.5-3.78H1004v9.67c0,3.64.7,4.34,4,4.34V297H994.88Z" transform="translate(-71.35 -224.18)"/><path class="cls-2" d="M1025.34,295.81c3.27,0,4-.7,4-4.34V271.38c0-3.64-.7-4.34-4-4.34v-1.17h22l.28,6.77h-1.36c-.18-2.52-.79-4.62-6-4.62h-3c-2.29,0-2.8.75-2.8,3.36v8.27h6.12c3,0,3.5-.65,3.5-3.74h1.26v9.67h-1.26c0-2.8-.47-3.78-3.5-3.78h-6.12v9.67c0,3.13.37,3.36,2.8,3.36h4.3c4,0,5.32-1.68,5.46-4.62h1.36l-.28,6.77h-22.75Z" transform="translate(-71.35 -224.18)"/><path class="cls-2" d="M1056.92,295.81c3.31,0,4-.7,4-4.34V271.38c0-3.64-.66-4.34-4-4.34v-1.17h12c5.56,0,12,1.64,12,7.85,0,5.93-3.31,7.28-7.05,8.08l5.56,9.85c1.68,3,2.38,4.16,4.81,4.16V297h-7.15l-8.22-14.48H1066v9c0,3.64.66,4.34,4,4.34V297h-13.07Zm9.1-15.46h2.85c4.21,0,6.73-1.78,6.73-6,0-5-2.9-6.3-6.63-6.3-2.67,0-3,.7-3,3.36Z" transform="translate(-71.35 -224.18)"/><path class="cls-2" d="M1091,295.81c3.27,0,4-.7,4-4.34V271.38c0-3.64-.71-4.34-4-4.34v-1.17h22l.28,6.77h-1.35c-.19-2.52-.79-4.62-6-4.62h-3c-2.28,0-2.8.75-2.8,3.36v8.27h6.12c3,0,3.5-.65,3.5-3.74H1111v9.67h-1.27c0-2.8-.46-3.78-3.5-3.78h-6.12v9.67c0,3.13.38,3.36,2.8,3.36h4.3c4,0,5.33-1.68,5.47-4.62H1114l-.28,6.77H1091Z" transform="translate(-71.35 -224.18)"/><path class="cls-2" d="M1122.73,295.81c3.27,0,4-.7,4-4.34V271.38c0-3.64-.7-4.34-4-4.34v-1.17h9.16L1146.51,291h.09V271.38c0-3.64-.7-4.34-4-4.34v-1.17h10.88V267c-3.36,0-4,.7-4,4.34V297h-4.44l-15.36-26.39h-.1v20.88c0,3.64.66,4.34,4,4.34V297h-10.88Z" transform="translate(-71.35 -224.18)"/><path class="cls-2" d="M1184.48,295.67a20.24,20.24,0,0,1-9,1.77c-10.13,0-13.78-6.11-13.78-16.62,0-8.5,2.62-15.42,13-15.42a29.6,29.6,0,0,1,9.34,1.4l.28,7.8H1183a8.07,8.07,0,0,0-7.8-7c-6.86,0-8,7.33-8,13.17,0,7.38,2.57,14,9.06,14a13.26,13.26,0,0,0,8.17-2.38Z" transform="translate(-71.35 -224.18)"/><path class="cls-2" d="M1193,295.81c3.27,0,4-.7,4-4.34V271.38c0-3.64-.71-4.34-4-4.34v-1.17h22l.28,6.77h-1.35c-.19-2.52-.79-4.62-6-4.62h-3c-2.28,0-2.8.75-2.8,3.36v8.27h6.12c3,0,3.5-.65,3.5-3.74H1213v9.67h-1.27c0-2.8-.46-3.78-3.5-3.78h-6.12v9.67c0,3.13.38,3.36,2.8,3.36h4.3c4,0,5.33-1.68,5.47-4.62H1216l-.28,6.77H1193Z" transform="translate(-71.35 -224.18)"/><path class="cls-2" d="M348.2,386.05c-4.13,1.82-10.81,4.62-23.32,4.62-26.36,0-35.83-15.92-35.83-43.24,0-22.11,6.8-40.09,33.89-40.09A76.85,76.85,0,0,1,347.23,311l.73,20.28h-3.53c-.48-6.19-7.16-18.1-20.28-18.1-17.85,0-20.77,19.07-20.77,34.26,0,19.19,6.68,36.43,23.56,36.43,11.54,0,17.49-3.64,21.26-6.19Z" transform="translate(-71.35 -224.18)"/><path class="cls-2" d="M354.63,386.42c8.63,0,10.33-1.83,10.33-11.3V322.89c0-9.47-1.7-11.29-10.33-11.29v-3h34v3c-8.62,0-10.32,1.82-10.32,11.29v21.62h32.31V322.89c0-9.47-1.83-11.29-10.33-11.29v-3h34v3c-8.62,0-10.32,1.82-10.32,11.29v52.23c0,9.47,1.7,11.3,10.32,11.3v3h-34v-3c8.5,0,10.33-1.83,10.33-11.3v-25H378.32v25c0,9.47,1.7,11.3,10.32,11.3v3h-34Z" transform="translate(-71.35 -224.18)"/><path class="cls-2" d="M504.75,363.46c0,13.72-4.25,27.21-29.27,27.21-21.14,0-29.15-9.48-29.15-27.21V322.89c0-9.47-1.82-11.29-10.33-11.29v-3h34v3c-8.5,0-10.32,1.82-10.32,11.29v40.57c0,12.14,2.19,21.62,17.37,21.62,14.45,0,18.82-6.44,18.82-21.62V322.89c0-9.47-1.82-11.29-10.32-11.29v-3h29.52v3c-8.51,0-10.33,1.82-10.33,11.29Z" transform="translate(-71.35 -224.18)"/><path class="cls-2" d="M515.92,386.42c8.62,0,10.32-1.83,10.32-11.3V322.89c0-9.47-1.7-11.29-10.32-11.29v-3h31.33c14.46,0,31.1,4.25,31.1,20.4,0,15.43-8.62,19-18.34,21l14.45,25.62c4.37,7.66,6.2,10.82,12.51,10.82v3H568.39L547,351.8H539.6v23.32c0,9.47,1.7,11.3,10.33,11.3v3h-34Zm23.68-40.21H547c10.93,0,17.49-4.61,17.49-15.67,0-13-7.53-16.39-17.25-16.39-6.92,0-7.65,1.82-7.65,8.74Z" transform="translate(-71.35 -224.18)"/><path class="cls-2" d="M652.19,386.05c-4.13,1.82-10.81,4.62-23.32,4.62-26.36,0-35.83-15.92-35.83-43.24,0-22.11,6.8-40.09,33.89-40.09A76.85,76.85,0,0,1,651.22,311l.73,20.28h-3.52c-.49-6.19-7.17-18.1-20.29-18.1-17.85,0-20.77,19.07-20.77,34.26,0,19.19,6.68,36.43,23.57,36.43,11.53,0,17.49-3.64,21.25-6.19Z" transform="translate(-71.35 -224.18)"/><path class="cls-2" d="M658.62,386.42c8.63,0,10.33-1.83,10.33-11.3V322.89c0-9.47-1.7-11.29-10.33-11.29v-3h34v3c-8.62,0-10.32,1.82-10.32,11.29v21.62h32.31V322.89c0-9.47-1.83-11.29-10.33-11.29v-3h34v3c-8.62,0-10.32,1.82-10.32,11.29v52.23c0,9.47,1.7,11.3,10.32,11.3v3h-34v-3c8.5,0,10.33-1.83,10.33-11.3v-25H682.31v25c0,9.47,1.7,11.3,10.32,11.3v3h-34Z" transform="translate(-71.35 -224.18)"/><path class="cls-2" d="M832.06,328.36c-1-6.56-4.13-15.19-17-15.19-9.83,0-15.3,5-15.3,11.3,0,11.9,20.65,17.49,29.76,24.53,6,4.62,10.2,10,10.2,18.22,0,17.13-13.24,23.45-31.7,23.45a81.64,81.64,0,0,1-21.62-3.28l-.73-20h3.52c1.46,6.19,4.25,17.49,20.17,17.49,10.56,0,16.51-5.71,16.51-13.12,0-11.91-14.21-16.28-25.38-23.44-7.29-4.74-13.24-10.57-13.24-20.29,0-13.11,10.08-20.65,27.81-20.65,8.14,0,16.16,1.58,19.8,2.19l.73,18.83Z" transform="translate(-71.35 -224.18)"/><path class="cls-2" d="M911.12,386.05c-4.12,1.82-10.81,4.62-23.32,4.62-26.35,0-35.83-15.92-35.83-43.24,0-22.11,6.81-40.09,33.89-40.09A76.8,76.8,0,0,1,910.15,311l.73,20.28h-3.52c-.49-6.19-7.17-18.1-20.28-18.1-17.86,0-20.77,19.07-20.77,34.26,0,19.19,6.68,36.43,23.56,36.43,11.54,0,17.49-3.64,21.25-6.19Z" transform="translate(-71.35 -224.18)"/><path class="cls-2" d="M917.56,386.42c8.62,0,10.32-1.83,10.32-11.3V322.89c0-9.47-1.7-11.29-10.32-11.29v-3h34v3c-8.63,0-10.33,1.82-10.33,11.29v21.62h32.31V322.89c0-9.47-1.82-11.29-10.32-11.29v-3h34v3c-8.63,0-10.33,1.82-10.33,11.29v52.23c0,9.47,1.7,11.3,10.33,11.3v3h-34v-3c8.5,0,10.32-1.83,10.32-11.3v-25H941.24v25c0,9.47,1.7,11.3,10.33,11.3v3h-34Z" transform="translate(-71.35 -224.18)"/><path class="cls-2" d="M1005.25,349c0-25.87,7.89-41.66,33.15-41.66s33.16,15.79,33.16,41.66-7.77,41.67-33.16,41.67S1005.25,374.88,1005.25,349Zm33.15,35.84c16.16,0,18.83-16.77,18.83-35.84s-2.67-35.83-18.83-35.83-18.82,16.89-18.82,35.83S1022.13,384.84,1038.4,384.84Z" transform="translate(-71.35 -224.18)"/><path class="cls-2" d="M1084.07,349c0-25.87,7.89-41.66,33.15-41.66s33.16,15.79,33.16,41.66-7.77,41.67-33.16,41.67S1084.07,374.88,1084.07,349Zm33.15,35.84c16.16,0,18.83-16.77,18.83-35.84s-2.67-35.83-18.83-35.83S1098.4,330.06,1098.4,349,1101,384.84,1117.22,384.84Z" transform="translate(-71.35 -224.18)"/><path class="cls-2" d="M1158.39,386.42c8.51,0,10.33-1.83,10.33-11.3V322.89c0-9.47-1.82-11.29-10.33-11.29v-3h34v3c-8.5,0-10.32,1.82-10.32,11.29v52.23c0,6.92,1.09,8.74,8.14,8.74h9c9.72,0,13.12-4.13,15.19-13.6h3.52l-.73,19.19h-58.79Z" transform="translate(-71.35 -224.18)"/><g class="cls-3"><path class="cls-4" d="M236.33,327.25A82.26,82.26,0,1,1,154.06,245a82.26,82.26,0,0,1,82.27,82.25" transform="translate(-71.35 -224.18)"/><path class="cls-5" d="M140.05,314.22c-.06-.12-.31-.14-.56,0s-.42.3-.36.43.31.14.56,0,.42-.31.36-.44" transform="translate(-71.35 -224.18)"/><path class="cls-5" d="M87.66,278.63c9.44-12.58,23.11-24.45,47.31-31.43,0,0,1.37,2.18,2.07,2.43s1,.23,1.13.18.71-.6.53-.69-.45-.29-.41-.46.13-.19.36-.17a20.35,20.35,0,0,1,2.68.26,1.76,1.76,0,0,1,1,1.28s-.06.16.2.23.17.36.16.46a.68.68,0,0,1-.13.36,1.54,1.54,0,0,0,0,.71c0,.07.57.43.65.56s.05.34.12.41.4.06.49.11.21.19.28.19a4.1,4.1,0,0,0,.6-.47c.07-.08.23-.16.32-.24a1.59,1.59,0,0,0,.2-.74c0-.16-.15-.43,0-.49a13.7,13.7,0,0,1,2,.19c.23.05.25.39.31.44a5.31,5.31,0,0,0,1.12.47,4.21,4.21,0,0,0,1.13,0c.16-.08.08-.53.21-.59s1.89-.17,2.06-.17.46.37.54.44a1.2,1.2,0,0,0,.48.24,3,3,0,0,0,1.1-.28.23.23,0,0,0,0-.28c0-.06-.3-.22-.27-.26a11.42,11.42,0,0,1,1.6.39,10.33,10.33,0,0,1,1.06.78c.14.1.24.23.36.23s.22-.13.37-.13a3.15,3.15,0,0,1,.86.1,6.77,6.77,0,0,0,1.13.21.43.43,0,0,1,.36.25c.05.11.29.18.49.21a2.78,2.78,0,0,0,1,0,4.51,4.51,0,0,0,.93-.56,1.05,1.05,0,0,1,.6-.22c.23,0,.5.35.72.54a11.52,11.52,0,0,1,1,2c.09.21.26.3.57.32s2,.15,2.17.12.21-.09.28-.19a.58.58,0,0,1,.35-.21,3.72,3.72,0,0,1,.51-.12.36.36,0,0,1,.33.2c0,.1.31.65.34.8s.16.14.27.16a1.51,1.51,0,0,1,.51.38c.07.09.14.08.27-.06s.3-.23.27-.55a1.16,1.16,0,0,0-.29-.67.28.28,0,0,1,.07-.42,1.49,1.49,0,0,1,.86.05c.16.07.45.47.58.55a12.35,12.35,0,0,0,2.07.92,13.53,13.53,0,0,1,3,1.17,19.87,19.87,0,0,0,1.94,1.75,10.37,10.37,0,0,0,2,1.09c.14.05.16-.08,0-.19a5.55,5.55,0,0,1-1-1.31c-.13-.4.28-1.11.41-1.35s.81-2.12.94-2.51.51-1.21,1-1.3,1.41.74,1.81,1.11,1.12,1.35,1.63,1.6a19.84,19.84,0,0,1,3.61,2c1.29,1,1.45,1,2.05.93a3.51,3.51,0,0,0,2.08-1.16c.35-.33.67,0,.79.16s.18.69,1,.78a15.14,15.14,0,0,1,3.19.41,9.8,9.8,0,0,1,2.29,1.88s.07.18.31,0,0,.46,0,.66a11.31,11.31,0,0,0-.37,2,4.92,4.92,0,0,0,.57,1.34,23.94,23.94,0,0,0,2.46,1.48c.21.1.47-.4.37-.63a5.55,5.55,0,0,1-.43-.92,18.44,18.44,0,0,1,2.21-2.4s4.52,3.66,6.61,5.87A84.83,84.83,0,0,1,236.25,331s-.66.29-1.05,0-.91-1.55-1.29-1.64c-.18-.05-4.39.48-8.88.79-4.77.33-9.85.43-10.54.1a6.23,6.23,0,0,1-2.61-2.39c-.38-.67-1.66-3.63-.25-8.6a47.6,47.6,0,0,1,4.64-11.42s1-1.28-.19-2.07-4.87-2.81-6.75-6.91l-.41-1.72c-.11-.48-.59-1.16-.66-1.52s.26-1.22,0-1.92-1.89-3.8-3.56-4.87c-.78-.61-.52-1.05-.65-1.53s-.73-2.4-1.33-2.65-1.5-.53-1.63-1,.29-1.43.09-1.85-.89-1.65-1.3-1.65-.33.28-.22.54-.61.25-1,.22-.8-.7-1.05-.95-1.06-1.12-4.68.06c-2.36.7-3.47-.61-4.56-3.34s-1.3-3.06-1.37-3.7,1-.12.29-1.33-2.29-6.18-2.83-7.52-.93-1.17-.86-.54-1.47,1.47-2.61.51-2.14-2.55-2.71-2c-.32.31-.06.89-.51.92s-1.45.2-.54,2.26-.54,1.94-1.15,2.16-1.85.48-2,.91-.1,3.14-.32,3.23-1-.57-1.81-1.05-1.27-1.63-1.65-1.1-.61,4.13-.52,4.76a16.61,16.61,0,0,1,.1,3.12,8.1,8.1,0,0,1-.5,1.91c-.11.26,0,1.07-.08,1.14s-.22,0-.35.3,0,1.78-.44,1.68-.8-1.43-1.18-2.1a9.94,9.94,0,0,1-1.43-2.61c-.16-.89.25-1.11-.26-1.88a1,1,0,0,1,.26-1.3c.23-.26.89-.07,1.65-1.37a24.07,24.07,0,0,0,1.91-4.36c.23-.83-.13-2-.67-1.85s-.6,1.24-.86,1.66-.69.38-1.11.19-1.28-.93-2.25-.37a3.54,3.54,0,0,0-1.6,2.21c-.29.86-1.91,2.39-2.77,2.14s-1.5-1.21-2.13-1.21a7.89,7.89,0,0,0-6.37,3.28c-.48.76-.16,1.94-.57,2.29s-1.47-.22-1.85,0a2.53,2.53,0,0,0-.1,4.2c.54.48,1.75.06,2.39.7s.54,3.6.35,5.79,0,2.71-.51,3.35a11.49,11.49,0,0,0-1.88,3c-.57,1.43-.44,3.05-1.87,4.17a10.91,10.91,0,0,1-3.79,1.53c-.39.15-.58.73-.7,1.21a9.89,9.89,0,0,1-.83,1.91,20.94,20.94,0,0,1-1.34,1.94,1.94,1.94,0,0,0-.24,1.55c.11.26,1.88,1.64,1.87,3.19.08.24.15.08.23,0s0,2.51-2.67,3.78c-.69.26-1.3.18-1.21-.45s.57-1.88.41-2.16a2.31,2.31,0,0,1-.26-.82c0-.2.14-.42.12-.65s-.44-1.15-.71-1.25-.69-.24-.74-.4.5-1.59.26-2-.78-.69-1-.56-1.16,1-1.47.42,0-.62,0-.79.41-1.6-.19-1.67-1.12.26-1.43,1.19-.49,1.35-1,1.46c-.22,0-.43-.55-.86.14s.69,2,1.53,2.15,2.17.36,2.17.64-.91.84-1.15,1.15-2,2.91-.76,3.8a.79.79,0,0,1,.09,1.09,4.54,4.54,0,0,0,.17,1.86c.12.41-.29.75.22,1.58a4.11,4.11,0,0,1,.57,2.84c-.24.72-.65.86-.74,1.37a9.4,9.4,0,0,1-2.82,4.58c-.45.48-.52,1.34-.76,1.65a11.1,11.1,0,0,1-1.89,1.26c-.33.19-.72.77-1,.93a10.93,10.93,0,0,0-2.73,1.67,8.06,8.06,0,0,0-.64,1.32,5.58,5.58,0,0,1-.84,1.07,1.63,1.63,0,0,0,0,.93s-.16.77-.64,0-.57-1.45-.83-1.74-1.75.07-1.84,1.65c0,0,0,.55.83.62s.55,1,.34,1.21.19.91.4,1.39a7.38,7.38,0,0,1,1,5.37c-.26,1.72-.31,2.68-.81,2.82s-1.29.33-1.79,1.93c-.27.72-1.17,1-1.58,0s-1.41-3.73-2.86-4.06c-1-.19-.94.12-.86.76s-.22,3.34.09,4,3.61,5.61,4,6.85.9,3.51.44,3.75-2.76-3.85-3.16-4.49-.86-1.77-1.1-2.25-.14-.88-.34-1.29a16.25,16.25,0,0,1-1.48-2.57c-.28-.94-.23-2.63-.38-3.3s-.79-3.13-.9-3.84-.19-2.62-.66-2.65-.66.86-1,.88-.5-.33-.6-1a29.09,29.09,0,0,0-1.36-3.87c-.33-.81-.43-3.67-1.62-4.36s-1.84-.58-3.06,1.07c-.6.82-1.52,2.33-2.48,3.58a14.59,14.59,0,0,1-2.53,2.65c-1.12.81-1.78,1.56-1.51,2.1,0,0,.77.34.48,1a2.42,2.42,0,0,0-.33,2.1,7.53,7.53,0,0,1,.45,3.53c-.16,1.46-.45,2-.93,2.1s-1.43-1.5-1.74-2.55a48.43,48.43,0,0,0-2.58-5.4,40.08,40.08,0,0,1-1.46-5.78c-.14-1,0-2.29-.67-2.48s-1.14-.86-1.52-1.91a19.16,19.16,0,0,0-2.15-3.32c-.31-.43-.24-1.66-.79-1.76s-1.12.49-1.36.18-.62-.52-.62-.83.12-1-.72-.79-2,1.05-3-.29-1.34-2.34-2.1-2.45-4.09-.06-4.19.35c0,.2.38.5.61.89s.26.87.44,1.06c.37.37,1.21.37,1.83,1.13.35.36,1.5.43,1.74.5a4.92,4.92,0,0,1,1.15,1.13.55.55,0,0,0,.74.21c.28-.14.81.34.66,1.08a2,2,0,0,0,.08,1.67,16,16,0,0,1-.72,2.5c-.22.85-.13,1.65-.38,1.8-.67.38-1,.31-1.53,1.14s-.91.73-1.26.93a5.13,5.13,0,0,1-4.92,1.82s-5.81-31.89,15.11-59.77" transform="translate(-71.35 -224.18)"/><path class="cls-5" d="M125.42,353c.44-.64,1.14-1.1,1.23-1.42s.17-1.75.85-2.11,2.65-.24,2.91.18a1.35,1.35,0,0,1-.28,1.43,2.18,2.18,0,0,0-.55,1.53,11.1,11.1,0,0,0-.1,3c.22.49.55,1.49.31,1.71a1.81,1.81,0,0,0-.57,1.06,5.42,5.42,0,0,1-.27,1.47,7.73,7.73,0,0,0-.58,1.23c-.08.19-.37.37-.41.53s-1.27.91-3.49-.67a1.14,1.14,0,0,1-.44-1.09c0-.41,0-.74-.13-.72s-.52-.47-.54-.64a4.15,4.15,0,0,0-.38-1.38,2.46,2.46,0,0,1-.71-2.22,1.91,1.91,0,0,1,1.35-1.24c.85-.22,1.25.18,1.8-.64" transform="translate(-71.35 -224.18)"/><path class="cls-5" d="M129.3,372.42a8.77,8.77,0,0,1,3.18-1.94,2.41,2.41,0,0,0,1.6-1.43c.28-.58,1.91-1.41,2.13-2s.57-.51.92-.38.32.95.54.95a6.65,6.65,0,0,0,1.63-2.13c.31-.7.73-2.32,2.86-2.1s2.23.73,2,1.18-1.33,1.11-1.14,1.43a7,7,0,0,0,.77,1.47c.37.41,2.19,1.86,2.52,1.75a3.83,3.83,0,0,0,1.17-1.79,3.2,3.2,0,0,0-.2-1.91c-.26-.32.13-1.94.79-2.16a1.16,1.16,0,0,1,1.31.73c.13.48.48,5.45,1.34,6.78s1.5,2.11,1.47,2.78-.45,1.84-.2,2.22.83.54.8,1.11a18.46,18.46,0,0,1-1.5,3.68,13.05,13.05,0,0,0-1.81,2.4,13.53,13.53,0,0,1-2.77,3.76c-.51.22-3,.35-3.28,0s-1.46-2.87-2-3.08-1.63-.68-1.89-1.31-.44-.8-1.33-1a3.29,3.29,0,0,0-2.68.26c-.64.43-.41,1.21-1.21,1.49s-2.38,1.05-3.4.77-1.82-2.71-2.17-3.47-1.14-2-1-2.49.79-1.3.51-1.65-1.81-1.31,1-3.92" transform="translate(-71.35 -224.18)"/><path class="cls-5" d="M131.65,406.42s1.69-3.54,8.61-4.38c1.56-.22,2.34-.39,3.12-1.28s3.13-1.62,3.68-1.95.43-.94,1.44-.7c.6.15,1.48.67,1.57,1.05s1.56-.61,2.44-.76c2.19-.38,9.21.14,12.94,2.77,0,0,.24.48,1-.14s4.68.81,7.17,1.72c1,.36,1.41,1.2,2,1.81.9.92,1.73,1.6,1.73,1.6s-19.33,7.51-45.65.26" transform="translate(-71.35 -224.18)"/><rect class="cls-6" x="82.53" y="20.55" width="0.96" height="164.94"/><rect class="cls-6" x="0.46" y="103.2" width="164.51" height="0.95"/><path class="cls-6" d="M154.56,409.25c-.32-.18-32-18.85-32-81.46s31.54-82.05,31.86-82.24l-.49-.82c-.33.2-8.21,5-16.2,17.61-7.36,11.64-16.12,32.44-16.12,65.45s8.8,53.6,16.18,65.07c6.44,10,12.81,14.92,15.25,16.57Z" transform="translate(-71.35 -224.18)"/><path class="cls-6" d="M155.88,409.32c2.55-1.76,8.78-6.67,15.08-16.46,7.39-11.47,16.19-32.06,16.19-65.07S178.38,274,171,262.34c-8-12.66-15.88-17.41-16.21-17.61l-.48.83c.31.18,31.85,19.61,31.85,82.23s-31.65,81.28-32,81.46Z" transform="translate(-71.35 -224.18)"/><path class="cls-6" d="M154.43,409.46a83.88,83.88,0,0,1-29.89-15.36c-13.62-10.87-29.84-31.2-29.84-66.31s16.19-55.58,29.78-66.57a84.3,84.3,0,0,1,29.83-15.61l-.22-.93a85.4,85.4,0,0,0-30.18,15.77c-13.76,11.12-30.17,31.83-30.17,67.34s16.44,56.08,30.23,67.08a87.76,87.76,0,0,0,27.51,14.74Z" transform="translate(-71.35 -224.18)"/><path class="cls-6" d="M157.65,409.54a87.64,87.64,0,0,0,27.28-14.67c13.79-11,30.23-31.57,30.23-67.08s-16.4-56.22-30.17-67.34a85.49,85.49,0,0,0-30.17-15.77l-.23.93a84.21,84.21,0,0,1,29.83,15.61c13.59,11,29.78,31.45,29.78,66.57S198,383.23,184.36,394.1a84.08,84.08,0,0,1-29.89,15.36Z" transform="translate(-71.35 -224.18)"/><path class="cls-6" d="M81.25,289.11c.25.14,25.24,13.94,72.94,13.94s72.7-13.55,72.95-13.68l-.46-.84c-.25.14-25.05,13.57-72.49,13.57S82,288.42,81.72,288.28Z" transform="translate(-71.35 -224.18)"/><path class="cls-6" d="M102.38,263.07c.2.15,21.2,15,51.85,15s51.5-14.74,51.71-14.89l-.83-.68c-.21.15-20.56,14.62-50.88,14.62s-50.84-14.52-51-14.66Z" transform="translate(-71.35 -224.18)"/><path class="cls-6" d="M135.08,247.17a26.5,26.5,0,0,0,19.24,8.07c12.32,0,18.49-7.6,18.75-7.92l-.75-.6c-.06.08-6.16,7.56-18,7.56A25,25,0,0,1,136,246.74Z" transform="translate(-71.35 -224.18)"/><path class="cls-6" d="M81.25,365.83l.47.83c.24-.14,25-13.82,72.47-13.82s72.24,13.43,72.49,13.57l.46-.84c-.25-.13-25.24-13.68-72.95-13.68s-72.69,13.8-72.94,13.94" transform="translate(-71.35 -224.18)"/><path class="cls-6" d="M102.66,391.68l.56.77c.2-.15,20.68-14.62,51-14.62s50.42,14.19,50.62,14.33l.56-.77c-.2-.15-20.54-14.51-51.18-14.51s-51.36,14.65-51.57,14.8" transform="translate(-71.35 -224.18)"/><path class="cls-6" d="M136.53,407.63a25.36,25.36,0,0,1,17.79-7c10.09,0,15.85,5.23,17.37,6.82l1.15-.15c-.25-.31-6.2-7.63-18.52-7.63s-18.72,7.5-19,7.81Z" transform="translate(-71.35 -224.18)"/><path class="cls-6" d="M71.35,327.25a82.73,82.73,0,1,0,82.71-82.72,82.81,82.81,0,0,0-82.71,82.72m1,0A81.78,81.78,0,1,1,154.06,409,81.86,81.86,0,0,1,72.3,327.25" transform="translate(-71.35 -224.18)"/><g class="cls-7"><g class="cls-8"><path class="cls-6" d="M213.83,322.77c3.93-.86,4-3,4-3,9.8-3.77,7-9.75,7-9.75,7.56-5.76,3.9-10.54,3.9-10.54a13.52,13.52,0,0,0,5.15-7.17c.47-3.59-3.42-4.9-3.42-4.9,6.21-7.6,1.49-13.95,1.49-13.95,6.71-15.67.27-17.4.27-17.4,1.86-7.22-.49-10.45-.49-10.45-1.88-3.52-3,.17-3,.17-5,18.45-12.89,28.43-12.89,28.43a87.19,87.19,0,0,1-14.22,15s-8.85,4.44-10.86,8c-1.53,4,7.69,23.83,8.88,25.22,1.72,2,5.06,2.86,8.5,2.29a53.38,53.38,0,0,0,5.74-1.9" transform="translate(-71.35 -224.18)"/></g></g><path class="cls-5" d="M213.7,323.28c3.36-.74,4.38-2.51,4.55-3.18,3.66-1.45,6-3.38,6.94-5.74a6.12,6.12,0,0,0,.45-2.31,5.7,5.7,0,0,0-.3-1.87c2.76-2.17,4.33-4.46,4.65-6.8a6.55,6.55,0,0,0,.06-.86,5.87,5.87,0,0,0-.75-2.92,13.7,13.7,0,0,0,5-7.18v0h0a5.07,5.07,0,0,0,0-.66c0-2.61-2.18-4-3.21-4.48a13,13,0,0,0,2.94-7.93,11.31,11.31,0,0,0-1.64-5.89c2.25-5.31,3-9,3-11.65a8.87,8.87,0,0,0-.75-3.86,4.38,4.38,0,0,0-2-2.1,20.89,20.89,0,0,0,.65-4.94c0-3.62-1.19-5.35-1.29-5.49-.65-1.21-1.33-1.77-2.05-1.71-1.14.11-1.7,1.8-1.76,2-5,18.15-12.75,28.19-12.82,28.29a87.06,87.06,0,0,1-14.11,14.86l-1.28.57a5.17,5.17,0,0,1,.18.87l1.56-.7,0,0a88.82,88.82,0,0,0,14.29-15c.07-.09,8-10.24,13-28.57.16-.52.61-1.33,1-1.36.16,0,.59.08,1.23,1.29l0,0v0a9.16,9.16,0,0,1,1.13,5,20.36,20.36,0,0,1-.69,5.05l-.11.41.41.11a3.37,3.37,0,0,1,1.81,1.85,8.09,8.09,0,0,1,.65,3.46c0,2.5-.73,6.17-3,11.51l-.09.23.14.2a9.81,9.81,0,0,1,1.65,5.53,12.35,12.35,0,0,1-3.12,7.89l-.39.48.59.2c.13.05,3.16,1.11,3.16,3.9a4.92,4.92,0,0,1,0,.52,13.28,13.28,0,0,1-5,6.9l-.35.26.26.34a4.77,4.77,0,0,1,.82,2.76c0,1.8-.91,4.34-4.64,7.18l-.27.21.14.31a4.76,4.76,0,0,1,.34,1.84,5.23,5.23,0,0,1-.39,2c-.87,2.17-3.12,4-6.67,5.33l-.25.1,0,.27c0,.08-.45,1.93-4,2.69Z" transform="translate(-71.35 -224.18)"/><path class="cls-5" d="M231.8,256c0,.13-3.21,13.55-11.32,22.77a.44.44,0,0,0,0,.61.43.43,0,0,0,.61,0c8.25-9.38,11.48-23,11.52-23.15a.42.42,0,0,0-.33-.51.43.43,0,0,0-.52.32" transform="translate(-71.35 -224.18)"/><path class="cls-5" d="M231.55,273.31a33.77,33.77,0,0,1-10.64,12.94.43.43,0,1,0,.5.7,34.76,34.76,0,0,0,10.94-13.3.43.43,0,0,0-.8-.34" transform="translate(-71.35 -224.18)"/><path class="cls-5" d="M230.13,287.15c0,.07-5.61,6.61-10.91,7.83a.42.42,0,0,0-.32.52.43.43,0,0,0,.52.32c5.58-1.28,11.14-7.83,11.38-8.11a.44.44,0,0,0-.67-.56" transform="translate(-71.35 -224.18)"/><path class="cls-5" d="M228.46,299.16c-.07,0-6.64,5.22-12,5.45a.44.44,0,1,0,0,.87c5.64-.24,12.22-5.42,12.5-5.64a.45.45,0,0,0,.07-.61.44.44,0,0,0-.61-.07" transform="translate(-71.35 -224.18)"/><path class="cls-5" d="M224.57,309.69c-.06,0-5.81,4.23-11.76,3.29a.42.42,0,0,0-.49.36.42.42,0,0,0,.35.49c6.32,1,12.17-3.26,12.41-3.44a.44.44,0,0,0,.1-.61.44.44,0,0,0-.61-.09" transform="translate(-71.35 -224.18)"/><path class="cls-5" d="M211.07,319.06a.44.44,0,0,0,.2.58c3.57,1.69,7.86.09,8,0a.43.43,0,1,0-.33-.8s-4.08,1.51-7.3,0a.42.42,0,0,0-.57.2" transform="translate(-71.35 -224.18)"/><g class="cls-7"><g class="cls-9"><path class="cls-6" d="M162.17,306.83s-3.34-26.55-3.21-27.52a31.13,31.13,0,0,1,1.81-14.51,120,120,0,0,1,5.13-11.15,125.09,125.09,0,0,0,9.32-22.54,34.84,34.84,0,0,0,1.19-4.35c.29-1.76,1.37-3.11,2.79-1.25,0,0,2.3,2.82,1.9,8.16,0,0,1.76-3.14,3.37.15a18.35,18.35,0,0,1,1.19,6.65s2.43-3.09,3.45-.92c0,0,2.76,3.82.53,10.09,0,0,4.81,0,4.12,5.37a17,17,0,0,1-2.31,7s3.15-4.22,5-1.42c0,0,2.61,3.58,0,9.65a22.07,22.07,0,0,1-3.25,5.38s5.82-5.65,7.53-2.85c0,0,1.54,2.63-1.44,8.5,0,0-1.88,3.54-3.07,4.52,0,0,5.18-4,6.48-2.07a5.34,5.34,0,0,1-1.11,6s-2.57,2.9-4.26,3.65c0,0,3.22-1.33,3.94-1.23a3.85,3.85,0,0,1,3.4,3.66,8.15,8.15,0,0,1-3.11,5.76,3.69,3.69,0,0,1,4.64,3.14,9.79,9.79,0,0,1-1.78,5.48s4.25,1.63,2.37,5.06c0,0-1.93,2.46-3.59,2.75,0,0,12.46,7.65,22.45,7.08a60.07,60.07,0,0,0,18.56-3.24L261.63,317s4.23-1.72,3.77,2.06c0,0-.8,7.29-7,9.66,0,0,8.41-2.65,9.3,2.67,0,0,.67,4.42-6.64,6.67,0,0,4.83.59,4.83,4.43,0,0,.4,2.49-4,4.19a14.65,14.65,0,0,1-4.35.08s3.8,1.43,3.39,4.34c0,0-.07,2.71-5.82,4.27,0,0-4.18.87-6.41-.78,0,0,4.47,3-.75,6.48,0,0-6.36,3.24-11.51-1.91,0,0,2.26,4-3.12,5.13,0,0-5.24.89-7.62-2.23,0,0-4.2,2.79-6.68,1.71,0,0-3.88-.88-4.73-4.18,0,0-.45,4.56-7,3.69,0,0-5.64-1.32-4.08-7.91,0,0-5.62,3.9-8.42.24,0,0-1.09-.93.92-3.78.62-.82,9.23-11.42,9.23-11.42s-12.42,5-29.91-.56a36.52,36.52,0,0,1-15.24-12s-5.05-7.78-10.29-7.78a5.43,5.43,0,0,0-3.5.91,10.49,10.49,0,0,1,.64-4.77s-1.58-5.4,1.86-8.64c0,0,5-6.15,13.69-.8" transform="translate(-71.35 -224.18)"/></g></g><path class="cls-5" d="M177.59,224.22c-.78.19-1.38,1.11-1.61,2.47a33.25,33.25,0,0,1-1.17,4.28,126.66,126.66,0,0,1-9.28,22.47,122.43,122.43,0,0,0-5.17,11.2,32.32,32.32,0,0,0-2,11.33,22.57,22.57,0,0,0,.21,3.37h0c0,1.79,2.39,20.92,3.11,26.67-8.44-4.68-13.44,1.27-13.49,1.33l0,0a8.14,8.14,0,0,0-2.36,6.06,12.31,12.31,0,0,0,.35,2.89,10.83,10.83,0,0,0-.67,3.78c0,.62.05,1,.05,1.06l.1.73.59-.44a5,5,0,0,1,3.19-.83h0c5,0,9.87,7.5,9.92,7.58,5.92,8.46,15.37,12.1,15.46,12.13,14.09,4.45,25,2.12,28.8,1-2.25,2.77-7.82,9.63-8.32,10.3a5.78,5.78,0,0,0-1.3,3.15,1.59,1.59,0,0,0,.4,1.16c2.12,2.77,5.88,1.65,8.15.37a9.73,9.73,0,0,0-.1,1.3,6.36,6.36,0,0,0,.9,3.39,6.58,6.58,0,0,0,3.78,2.76h0c2.46.33,4.4-.05,5.75-1.12a4.76,4.76,0,0,0,1.34-1.7,7.45,7.45,0,0,0,4.58,3.3l-.08,0c2.29,1,5.74-.91,6.79-1.55,2.59,2.93,7.55,2.14,7.76,2.11,1.92-.41,3.15-1.21,3.68-2.38a3.31,3.31,0,0,0,.27-1.34,3.19,3.19,0,0,0,0-.54c5.07,3.84,10.79,1,10.85,1l0,0h0c1.81-1.22,2.73-2.53,2.73-3.91h0a3.35,3.35,0,0,0-.52-1.72,12.4,12.4,0,0,0,4.8,0c6-1.62,6.16-4.55,6.16-4.68v.05a4.56,4.56,0,0,0,0-.51,4.18,4.18,0,0,0-1.95-3.31,20.93,20.93,0,0,0,2.51-.24H262l0,0c4-1.53,4.32-3.72,4.32-4.43a.78.78,0,0,0,0-.21c0-2.53-2-3.88-3.74-4.47,5.09-2,5.57-5.18,5.57-6.26a2.09,2.09,0,0,0,0-.38,4,4,0,0,0-1.86-2.87,8.36,8.36,0,0,0-5.21-.73c4.1-3.08,4.75-8.36,4.78-8.62s0-.41,0-.6a2.26,2.26,0,0,0-.78-1.89c-1.21-.92-3.27-.16-3.59,0l-17.38,4.76a59.62,59.62,0,0,1-18.44,3.22c-8.37.48-18.6-4.94-21.45-6.56a10.91,10.91,0,0,0,2.92-2.56l0,0,0,0a3.91,3.91,0,0,0,.53-1.9,3,3,0,0,0-.19-1.07,5,5,0,0,0-2.43-2.47,10.42,10.42,0,0,0,1.56-5.31v-.09a4.46,4.46,0,0,0-1.93-3,4,4,0,0,0-1.9-.56,8.57,8.57,0,0,0,2.3-5.22v-.06a4.3,4.3,0,0,0-3.8-4h0a3.76,3.76,0,0,0-1.33.23c1-1,1.85-1.88,1.91-2a6.28,6.28,0,0,0,1.7-4.16,5.17,5.17,0,0,0-.52-2.31v0l0,0a1.56,1.56,0,0,0-1.11-.67,6.63,6.63,0,0,0-3.74,1.16c.78-1.2,1.42-2.41,1.46-2.49a14.75,14.75,0,0,0,1.89-6.59,4.79,4.79,0,0,0-.46-2.33,2,2,0,0,0-1.48-1c-1.26-.16-2.85.69-4.17,1.62.79-1.4,1.36-2.7,1.4-2.79a13.59,13.59,0,0,0,1.19-5.36,8.36,8.36,0,0,0-1.26-4.71,2.24,2.24,0,0,0-1.83-1.14,3.39,3.39,0,0,0-1.93.69,19.34,19.34,0,0,0,1.16-4.83,7.75,7.75,0,0,0,.07-1.06,4.41,4.41,0,0,0-4-4.72,14.71,14.71,0,0,0,.73-4.4,10.06,10.06,0,0,0-1.49-5.57l0,.07a1.56,1.56,0,0,0-1.24-1,3.1,3.1,0,0,0-2.2,1.06,18.75,18.75,0,0,0-1.19-5.75c-.56-1.16-1.23-1.75-2-1.77a1.91,1.91,0,0,0-1.3.53,11.79,11.79,0,0,0-2-7.18c-.79-1.05-1.5-1.13-1.95-1m-15,82.55c-1.31-10.36-3.21-26-3.21-27.36v-.17a21.51,21.51,0,0,1-.2-3.23,31.69,31.69,0,0,1,2-11.06c0-.06,2.52-6.32,5.11-11.09a126.32,126.32,0,0,0,9.35-22.63,32.91,32.91,0,0,0,1.21-4.43c.15-.91.55-1.64.95-1.74s.67.18,1.07.71c0,0,2.19,2.78,1.81,7.87l.81.24c.17-.3.79-1.15,1.37-1.13s1,.7,1.23,1.26a18.15,18.15,0,0,1,1.15,6.46l0,1.27.79-1c.5-.63,1.52-1.6,2.17-1.53.08,0,.32,0,.55.52l0,0,0,0s2.59,3.74.48,9.7l-.21.58h.62a4.22,4.22,0,0,1,2.87,1.24,4.45,4.45,0,0,1,.81,3.64,16.54,16.54,0,0,1-2.23,6.79l.7.51c.47-.63,1.94-2.25,3.13-2.21a1.43,1.43,0,0,1,1.14.77c.12.16,2.45,3.5,0,9.24a21.6,21.6,0,0,1-3.15,5.24l.6.62c1.08-1.05,4.26-3.72,6-3.49a1.05,1.05,0,0,1,.85.56s1.35,2.54-1.45,8.07a20.71,20.71,0,0,1-3,4.38l.54.68c1-.77,3.9-2.7,5.33-2.48a.76.76,0,0,1,.52.3,4.15,4.15,0,0,1,.4,1.85,5.41,5.41,0,0,1-1.48,3.61s-2.52,2.84-4.11,3.54l.35.8a16.46,16.46,0,0,1,3.7-1.2,3.39,3.39,0,0,1,3,3.25,7.77,7.77,0,0,1-2.93,5.4l.38.76a3.73,3.73,0,0,1,2.58.35,3.58,3.58,0,0,1,1.51,2.43,9.33,9.33,0,0,1-1.68,5.14l-.39.46.56.22a4.64,4.64,0,0,1,2.44,2.2,2.18,2.18,0,0,1,.14.76,3.17,3.17,0,0,1-.42,1.47c-.54.67-2.09,2.35-3.29,2.55l-1.13.2,1,.6c.51.31,12.68,7.71,22.69,7.14a60.91,60.91,0,0,0,18.68-3.26l17.41-4.77h0c.52-.21,2-.64,2.76-.09.38.29.52.86.42,1.7,0,.07-.85,7.06-6.73,9.3l.28.82c.05,0,4.78-1.48,7.28.07a3.1,3.1,0,0,1,1.47,2.27s0,.11,0,.25c0,.92-.45,4.1-6.35,5.92l.07.84c.19,0,4.45.6,4.45,4v.17c0,.47-.24,2.25-3.72,3.6a13.77,13.77,0,0,1-4.11.09l-.28.82s3.47,1.34,3.11,3.87v0s-.2,2.44-5.5,3.87c0,0-4,.81-6-.71h0l-.5.7s0,0,0,0a3.61,3.61,0,0,1,1.59,2.57h0c0,1.07-.78,2.13-2.32,3.18-.42.2-6.2,2.93-11-1.85l-.69.52a3.26,3.26,0,0,1,.22,2.62c-.41.9-1.44,1.53-3.05,1.88,0,0-5,.8-7.19-2.08l-.24-.32-.34.23s-4,2.65-6.27,1.67l0,0h0s-3.63-.87-4.4-3.86l-.85.06a3.83,3.83,0,0,1-1.41,2.37c-1.16.91-2.86,1.22-5.06.93a5.35,5.35,0,0,1-4-5.31,9,9,0,0,1,.26-2.07l.26-1.09L203,355c-.06,0-5.32,3.62-7.84.33v0l0,0s-.72-.79,1-3.21c.6-.8,9.13-11.29,9.21-11.4l1.05-1.29-1.54.62c-.13.05-12.5,4.83-29.61-.57-.07,0-9.28-3.58-15-11.8-.2-.32-5.22-8-10.64-8h.05a6.24,6.24,0,0,0-3.16.62c0-.08,0-.17,0-.26a10,10,0,0,1,.66-3.63l.06-.13,0-.15a10.85,10.85,0,0,1-.34-2.76,7.3,7.3,0,0,1,2.08-5.45l0,0v0c.2-.24,4.89-5.78,13.13-.7a.49.49,0,0,0,.45,0,.47.47,0,0,0,.21-.4" transform="translate(-71.35 -224.18)"/><path class="cls-5" d="M151.77,312.21a2.08,2.08,0,0,0-.07.55,1.79,1.79,0,0,0,.23.91,1.54,1.54,0,0,0,.95.74,1.36,1.36,0,0,0,1.06-.17,2,2,0,0,0,.89-1.27,1.74,1.74,0,0,0-1.11-2.21,1.76,1.76,0,0,0-1.95,1.45m1.34,1.36a.67.67,0,0,1-.43-.33,1,1,0,0,1-.07-.81v0a.89.89,0,0,1,.91-.79c.41.11.62.59.46,1.16a1.15,1.15,0,0,1-.48.73.48.48,0,0,1-.39.07m-1.34-1.35h0v0" transform="translate(-71.35 -224.18)"/><path class="cls-5" d="M180.69,233.56a102.26,102.26,0,0,1-12.64,27.77.44.44,0,0,0,.12.6.42.42,0,0,0,.6-.12,102.65,102.65,0,0,0,12.75-28,.43.43,0,0,0-.31-.53.42.42,0,0,0-.52.31" transform="translate(-71.35 -224.18)"/><path class="cls-5" d="M185.24,240.38c0,.1-2.13,9.72-13.43,24.33a.43.43,0,0,0,.07.61.44.44,0,0,0,.61-.08C183.93,250.45,186,241,186.08,240.56a.43.43,0,0,0-.33-.51.43.43,0,0,0-.51.33" transform="translate(-71.35 -224.18)"/><path class="cls-5" d="M189.25,249.47c-.06.14-5.94,14-13.53,20.54a.43.43,0,0,0,0,.61.42.42,0,0,0,.6,0C184,263.94,190,250,190,249.81a.44.44,0,0,0-.23-.57.43.43,0,0,0-.56.23" transform="translate(-71.35 -224.18)"/><path class="cls-5" d="M192.55,259.25c-.05.11-5.65,11-14.91,17.91a.42.42,0,0,0-.09.61.43.43,0,0,0,.6.09c9.43-7,15.12-18.11,15.18-18.22a.44.44,0,0,0-.78-.39" transform="translate(-71.35 -224.18)"/><path class="cls-5" d="M193.55,274.5c-.06.07-6.25,7.16-13.89,9.69a.42.42,0,0,0-.27.54.42.42,0,0,0,.54.28c7.88-2.6,14-9.64,14.28-9.94a.44.44,0,0,0-.05-.61.43.43,0,0,0-.61,0" transform="translate(-71.35 -224.18)"/><path class="cls-5" d="M196.47,284.87a28,28,0,0,1-14.56,7,.43.43,0,0,0,.13.85,28.13,28.13,0,0,0,15.05-7.24.43.43,0,0,0-.62-.6" transform="translate(-71.35 -224.18)"/><path class="cls-5" d="M197.09,293a37.73,37.73,0,0,1-13.88,5.2.44.44,0,0,0-.36.5.45.45,0,0,0,.51.36,37.61,37.61,0,0,0,14.23-5.36.43.43,0,0,0,.1-.6.42.42,0,0,0-.6-.1" transform="translate(-71.35 -224.18)"/><path class="cls-5" d="M201.6,300.89s-3.61,2.71-17.83,2.35a.44.44,0,1,0,0,.87c14.67.37,18.25-2.43,18.4-2.55a.43.43,0,0,0-.55-.67" transform="translate(-71.35 -224.18)"/><path class="cls-5" d="M184.85,309.63a.43.43,0,0,0,.32.52c15,3.5,19.33.47,19.51.33a.43.43,0,0,0,.1-.6.44.44,0,0,0-.6-.1c-.05,0-4.36,2.92-18.81-.47a.43.43,0,0,0-.52.32" transform="translate(-71.35 -224.18)"/><path class="cls-5" d="M190.94,316.77a.43.43,0,0,0,.31.53c7.45,1.86,11.86,1.11,12,1.08a.44.44,0,0,0,.35-.51.43.43,0,0,0-.5-.35s-4.43.75-11.68-1.06a.42.42,0,0,0-.52.31" transform="translate(-71.35 -224.18)"/><path class="cls-5" d="M258.68,328.22c-.08,0-8.31,3.51-23.28,1.49a.44.44,0,0,0-.49.37.44.44,0,0,0,.37.49c15.24,2.05,23.41-1.41,23.75-1.56a.41.41,0,0,0,.22-.56.44.44,0,0,0-.57-.23" transform="translate(-71.35 -224.18)"/><path class="cls-5" d="M236.11,335.81a.44.44,0,0,0,.31.53c4,1.08,24.25,2.19,25.11,2.24a.44.44,0,0,0,.46-.41.44.44,0,0,0-.41-.46c-.21,0-21.06-1.15-24.93-2.2a.44.44,0,0,0-.54.3" transform="translate(-71.35 -224.18)"/><path class="cls-5" d="M232.46,339.25a.44.44,0,0,0,.12.6c2.7,1.84,23.91,7.13,24.81,7.35a.43.43,0,1,0,.21-.84c-7.58-1.88-22.47-5.82-24.54-7.23a.44.44,0,0,0-.6.12" transform="translate(-71.35 -224.18)"/><path class="cls-5" d="M228.71,341.85a.43.43,0,0,0-.07.61c1.67,2.14,19.64,12.43,20.4,12.87a.44.44,0,0,0,.59-.16.43.43,0,0,0-.16-.59c-5.16-3-18.85-11-20.15-12.66a.44.44,0,0,0-.61-.07" transform="translate(-71.35 -224.18)"/><path class="cls-5" d="M222.88,343.57a.43.43,0,0,0-.09.61c2.48,3.23,13.35,15.33,13.81,15.84a.44.44,0,0,0,.61,0,.45.45,0,0,0,0-.62c-.12-.12-11.31-12.58-13.77-15.79a.43.43,0,0,0-.6-.08" transform="translate(-71.35 -224.18)"/><path class="cls-5" d="M217,344.25a.44.44,0,0,0-.26.56c1.5,4.25,8.28,16.93,8.57,17.47a.43.43,0,0,0,.58.18.44.44,0,0,0,.18-.59c-.07-.13-7-13.16-8.51-17.35a.45.45,0,0,0-.56-.27" transform="translate(-71.35 -224.18)"/><path class="cls-5" d="M211.92,344.84a.43.43,0,0,0-.38.48c.45,4.22,2.27,14.27,2.29,14.37a.43.43,0,0,0,.5.35.43.43,0,0,0,.35-.5c0-.1-1.84-10.12-2.28-14.32a.44.44,0,0,0-.48-.38" transform="translate(-71.35 -224.18)"/><path class="cls-5" d="M207.61,343.17c-2,4.64-4.79,12-4.82,12.07a.43.43,0,0,0,.25.56.44.44,0,0,0,.56-.25c0-.08,2.83-7.41,4.81-12a.43.43,0,0,0-.8-.34" transform="translate(-71.35 -224.18)"/></g></svg>